# MagicaVoxel @ Ephtracy

# material
mtllib pillar2.mtl
usemtl palette

# normals
vn -1 0 0
vn 1 0 0
vn 0 0 1
vn 0 0 -1
vn 0 -1 0
vn 0 1 0

# texcoords
vt 0.443359 0.5
vt 0.451172 0.5
vt 0.486328 0.5
vt 0.763672 0.5

# verts
v -16 0 16
v -16 0 -16
v -16 1 16
v -16 1 -16
v -16 31 16
v -16 31 -16
v -16 32 16
v -16 32 -16
v -5 1 5
v -5 1 -5
v -5 2 5
v -5 2 -5
v -5 26 5
v -5 26 -5
v -5 27 5
v -5 27 -5
v -5 31 5
v -5 31 -5
v -4 2 3
v -4 2 2
v -4 2 1
v -4 2 -1
v -4 2 -2
v -4 2 -3
v -4 3 1
v -4 3 -1
v -4 4 1
v -4 4 -1
v -4 6 3
v -4 6 2
v -4 6 1
v -4 6 -1
v -4 6 -2
v -4 6 -3
v -4 7 2
v -4 7 -2
v -4 9 3
v -4 9 2
v -4 9 1
v -4 9 -1
v -4 9 -2
v -4 9 -3
v -4 10 2
v -4 10 1
v -4 10 -1
v -4 10 -2
v -4 11 3
v -4 11 2
v -4 11 1
v -4 11 -1
v -4 11 -2
v -4 11 -3
v -4 12 1
v -4 12 -1
v -4 13 1
v -4 13 -1
v -4 14 3
v -4 14 2
v -4 14 1
v -4 14 -1
v -4 14 -2
v -4 14 -3
v -4 15 2
v -4 15 -2
v -4 16 2
v -4 16 -2
v -4 17 1
v -4 17 -1
v -4 18 3
v -4 18 2
v -4 18 -2
v -4 18 -3
v -4 20 3
v -4 20 2
v -4 20 -2
v -4 20 -3
v -4 21 1
v -4 21 -1
v -4 22 2
v -4 22 -2
v -4 23 2
v -4 23 -2
v -4 24 1
v -4 24 -1
v -4 26 3
v -4 26 2
v -4 26 1
v -4 26 -1
v -4 26 -2
v -4 26 -3
v -3 2 4
v -3 2 3
v -3 2 -3
v -3 2 -4
v -3 6 3
v -3 6 -3
v -3 8 4
v -3 8 3
v -3 8 -3
v -3 8 -4
v -3 9 4
v -3 9 3
v -3 9 -3
v -3 9 -4
v -3 10 4
v -3 10 3
v -3 10 -3
v -3 10 -4
v -3 11 4
v -3 11 3
v -3 11 -3
v -3 11 -4
v -3 14 4
v -3 14 3
v -3 14 -3
v -3 14 -4
v -3 16 4
v -3 16 3
v -3 16 -3
v -3 16 -4
v -3 18 4
v -3 18 3
v -3 18 -3
v -3 18 -4
v -3 20 4
v -3 20 3
v -3 20 -3
v -3 20 -4
v -3 21 4
v -3 21 3
v -3 21 -3
v -3 21 -4
v -3 22 4
v -3 22 3
v -3 22 -3
v -3 22 -4
v -3 23 4
v -3 23 3
v -3 23 -3
v -3 23 -4
v -3 26 4
v -3 26 3
v -3 26 -3
v -3 26 -4
v 3 2 4
v 3 2 3
v 3 2 -3
v 3 2 -4
v 3 6 3
v 3 6 -3
v 3 8 4
v 3 8 3
v 3 8 -3
v 3 8 -4
v 3 9 4
v 3 9 3
v 3 9 -3
v 3 9 -4
v 3 10 4
v 3 10 3
v 3 10 -3
v 3 10 -4
v 3 11 4
v 3 11 3
v 3 11 -3
v 3 11 -4
v 3 14 4
v 3 14 3
v 3 14 -3
v 3 14 -4
v 3 16 4
v 3 16 3
v 3 16 -3
v 3 16 -4
v 3 18 4
v 3 18 3
v 3 18 -3
v 3 18 -4
v 3 20 4
v 3 20 3
v 3 20 -3
v 3 20 -4
v 3 21 4
v 3 21 3
v 3 21 -3
v 3 21 -4
v 3 22 4
v 3 22 3
v 3 22 -3
v 3 22 -4
v 3 23 4
v 3 23 3
v 3 23 -3
v 3 23 -4
v 3 26 4
v 3 26 3
v 3 26 -3
v 3 26 -4
v 4 2 3
v 4 2 2
v 4 2 1
v 4 2 -1
v 4 2 -2
v 4 2 -3
v 4 3 1
v 4 3 -1
v 4 4 1
v 4 4 -1
v 4 6 3
v 4 6 2
v 4 6 1
v 4 6 -1
v 4 6 -2
v 4 6 -3
v 4 7 2
v 4 7 -2
v 4 9 3
v 4 9 2
v 4 9 1
v 4 9 -1
v 4 9 -2
v 4 9 -3
v 4 10 2
v 4 10 1
v 4 10 -1
v 4 10 -2
v 4 11 3
v 4 11 2
v 4 11 1
v 4 11 -1
v 4 11 -2
v 4 11 -3
v 4 12 1
v 4 12 -1
v 4 13 1
v 4 13 -1
v 4 14 3
v 4 14 2
v 4 14 1
v 4 14 -1
v 4 14 -2
v 4 14 -3
v 4 15 2
v 4 15 -2
v 4 16 2
v 4 16 -2
v 4 17 1
v 4 17 -1
v 4 18 3
v 4 18 2
v 4 18 -2
v 4 18 -3
v 4 20 3
v 4 20 2
v 4 20 -2
v 4 20 -3
v 4 21 1
v 4 21 -1
v 4 22 2
v 4 22 -2
v 4 23 2
v 4 23 -2
v 4 24 1
v 4 24 -1
v 4 26 3
v 4 26 2
v 4 26 1
v 4 26 -1
v 4 26 -2
v 4 26 -3
v 5 1 5
v 5 1 -5
v 5 2 5
v 5 2 -5
v 5 26 5
v 5 26 -5
v 5 27 5
v 5 27 -5
v 5 31 5
v 5 31 -5
v 16 0 16
v 16 0 -16
v 16 1 16
v 16 1 -16
v 16 31 16
v 16 31 -16
v 16 32 16
v 16 32 -16
v -16 0 16
v -16 1 16
v -16 31 16
v -16 32 16
v 16 0 16
v 16 1 16
v 16 31 16
v 16 32 16
v -5 1 5
v -5 2 5
v -5 26 5
v -5 27 5
v -5 31 5
v 5 1 5
v 5 2 5
v 5 26 5
v 5 27 5
v 5 31 5
v -3 2 4
v -3 8 4
v -3 9 4
v -3 10 4
v -3 11 4
v -3 14 4
v -3 16 4
v -3 18 4
v -3 20 4
v -3 21 4
v -3 22 4
v -3 23 4
v -3 26 4
v -2 7 4
v -2 8 4
v -2 11 4
v -2 13 4
v -2 14 4
v -2 15 4
v -2 22 4
v -2 23 4
v -2 24 4
v -2 26 4
v -1 2 4
v -1 7 4
v -1 8 4
v -1 9 4
v -1 10 4
v -1 12 4
v -1 16 4
v -1 18 4
v -1 21 4
v -1 24 4
v 1 2 4
v 1 7 4
v 1 8 4
v 1 9 4
v 1 10 4
v 1 12 4
v 1 16 4
v 1 18 4
v 1 21 4
v 1 24 4
v 2 7 4
v 2 8 4
v 2 11 4
v 2 13 4
v 2 14 4
v 2 15 4
v 2 22 4
v 2 23 4
v 2 24 4
v 2 26 4
v 3 2 4
v 3 8 4
v 3 9 4
v 3 10 4
v 3 11 4
v 3 14 4
v 3 16 4
v 3 18 4
v 3 20 4
v 3 21 4
v 3 22 4
v 3 23 4
v 3 26 4
v -4 2 3
v -4 6 3
v -4 9 3
v -4 11 3
v -4 14 3
v -4 18 3
v -4 20 3
v -4 26 3
v -3 2 3
v -3 6 3
v -3 8 3
v -3 9 3
v -3 10 3
v -3 11 3
v -3 14 3
v -3 16 3
v -3 18 3
v -3 20 3
v -3 21 3
v -3 22 3
v -3 23 3
v -3 26 3
v 3 2 3
v 3 6 3
v 3 8 3
v 3 9 3
v 3 10 3
v 3 11 3
v 3 14 3
v 3 16 3
v 3 18 3
v 3 20 3
v 3 21 3
v 3 22 3
v 3 23 3
v 3 26 3
v 4 2 3
v 4 6 3
v 4 9 3
v 4 11 3
v 4 14 3
v 4 18 3
v 4 20 3
v 4 26 3
v -4 2 -3
v -4 6 -3
v -4 9 -3
v -4 11 -3
v -4 14 -3
v -4 18 -3
v -4 20 -3
v -4 26 -3
v -3 2 -3
v -3 6 -3
v -3 8 -3
v -3 9 -3
v -3 10 -3
v -3 11 -3
v -3 14 -3
v -3 16 -3
v -3 18 -3
v -3 20 -3
v -3 21 -3
v -3 22 -3
v -3 23 -3
v -3 26 -3
v 3 2 -3
v 3 6 -3
v 3 8 -3
v 3 9 -3
v 3 10 -3
v 3 11 -3
v 3 14 -3
v 3 16 -3
v 3 18 -3
v 3 20 -3
v 3 21 -3
v 3 22 -3
v 3 23 -3
v 3 26 -3
v 4 2 -3
v 4 6 -3
v 4 9 -3
v 4 11 -3
v 4 14 -3
v 4 18 -3
v 4 20 -3
v 4 26 -3
v -3 2 -4
v -3 8 -4
v -3 9 -4
v -3 10 -4
v -3 11 -4
v -3 14 -4
v -3 16 -4
v -3 18 -4
v -3 20 -4
v -3 21 -4
v -3 22 -4
v -3 23 -4
v -3 26 -4
v -2 7 -4
v -2 8 -4
v -2 11 -4
v -2 13 -4
v -2 14 -4
v -2 15 -4
v -2 22 -4
v -2 23 -4
v -2 24 -4
v -2 26 -4
v -1 2 -4
v -1 7 -4
v -1 8 -4
v -1 9 -4
v -1 10 -4
v -1 12 -4
v -1 16 -4
v -1 18 -4
v -1 21 -4
v -1 24 -4
v 1 2 -4
v 1 7 -4
v 1 8 -4
v 1 9 -4
v 1 10 -4
v 1 12 -4
v 1 16 -4
v 1 18 -4
v 1 21 -4
v 1 24 -4
v 2 7 -4
v 2 8 -4
v 2 11 -4
v 2 13 -4
v 2 14 -4
v 2 15 -4
v 2 22 -4
v 2 23 -4
v 2 24 -4
v 2 26 -4
v 3 2 -4
v 3 8 -4
v 3 9 -4
v 3 10 -4
v 3 11 -4
v 3 14 -4
v 3 16 -4
v 3 18 -4
v 3 20 -4
v 3 21 -4
v 3 22 -4
v 3 23 -4
v 3 26 -4
v -5 1 -5
v -5 2 -5
v -5 26 -5
v -5 27 -5
v -5 31 -5
v 5 1 -5
v 5 2 -5
v 5 26 -5
v 5 27 -5
v 5 31 -5
v -16 0 -16
v -16 1 -16
v -16 31 -16
v -16 32 -16
v 16 0 -16
v 16 1 -16
v 16 31 -16
v 16 32 -16
v -16 0 16
v 16 0 16
v -16 0 -16
v 16 0 -16
v -5 26 5
v 5 26 5
v -3 26 4
v -2 26 4
v 2 26 4
v 3 26 4
v -4 26 3
v -3 26 3
v 3 26 3
v 4 26 3
v -4 26 2
v 4 26 2
v -4 26 1
v 4 26 1
v -4 26 -1
v 4 26 -1
v -4 26 -2
v 4 26 -2
v -4 26 -3
v -3 26 -3
v 3 26 -3
v 4 26 -3
v -3 26 -4
v -2 26 -4
v 2 26 -4
v 3 26 -4
v -5 26 -5
v 5 26 -5
v -16 31 16
v 16 31 16
v -5 31 5
v 5 31 5
v -5 31 -5
v 5 31 -5
v -16 31 -16
v 16 31 -16
v -16 1 16
v 16 1 16
v -5 1 5
v 5 1 5
v -5 1 -5
v 5 1 -5
v -16 1 -16
v 16 1 -16
v -5 2 5
v 5 2 5
v -3 2 4
v -1 2 4
v 1 2 4
v 3 2 4
v -4 2 3
v -3 2 3
v 3 2 3
v 4 2 3
v -4 2 2
v 4 2 2
v -4 2 1
v 4 2 1
v -4 2 -1
v 4 2 -1
v -4 2 -2
v 4 2 -2
v -4 2 -3
v -3 2 -3
v 3 2 -3
v 4 2 -3
v -3 2 -4
v -1 2 -4
v 1 2 -4
v 3 2 -4
v -5 2 -5
v 5 2 -5
v -16 32 16
v 16 32 16
v -16 32 -16
v 16 32 -16

# faces
f 3/3/1 2/3/1 1/3/1
f 4/3/1 2/3/1 3/3/1
f 7/3/1 6/3/1 5/3/1
f 8/3/1 6/3/1 7/3/1
f 11/1/1 10/1/1 9/1/1
f 12/1/1 10/1/1 11/1/1
f 15/1/1 14/1/1 13/1/1
f 16/1/1 14/1/1 15/1/1
f 17/3/1 16/3/1 15/3/1
f 18/3/1 16/3/1 17/3/1
f 25/2/1 21/2/1 20/2/1
f 25/3/1 22/3/1 21/3/1
f 26/2/1 23/2/1 22/2/1
f 26/3/1 22/3/1 25/3/1
f 27/2/1 25/2/1 20/2/1
f 27/2/1 26/2/1 25/2/1
f 28/2/1 23/2/1 26/2/1
f 28/2/1 26/2/1 27/2/1
f 29/3/1 20/3/1 19/3/1
f 30/2/1 27/2/1 20/2/1
f 30/3/1 20/3/1 29/3/1
f 31/3/1 28/3/1 27/3/1
f 31/2/1 27/2/1 30/2/1
f 32/2/1 23/2/1 28/2/1
f 32/3/1 28/3/1 31/3/1
f 33/3/1 24/3/1 23/3/1
f 33/2/1 23/2/1 32/2/1
f 34/3/1 24/3/1 33/3/1
f 35/2/1 31/2/1 30/2/1
f 35/2/1 32/2/1 31/2/1
f 35/2/1 34/2/1 33/2/1
f 35/2/1 33/2/1 32/2/1
f 35/2/1 30/2/1 29/2/1
f 36/2/1 34/2/1 35/2/1
f 37/2/1 35/2/1 29/2/1
f 38/3/1 36/3/1 35/3/1
f 38/2/1 35/2/1 37/2/1
f 39/3/1 36/3/1 38/3/1
f 40/3/1 36/3/1 39/3/1
f 41/2/1 34/2/1 36/2/1
f 41/3/1 36/3/1 40/3/1
f 42/2/1 34/2/1 41/2/1
f 43/3/1 38/3/1 37/3/1
f 43/3/1 39/3/1 38/3/1
f 44/2/1 40/2/1 39/2/1
f 44/3/1 39/3/1 43/3/1
f 45/3/1 42/3/1 41/3/1
f 45/2/1 40/2/1 44/2/1
f 45/3/1 41/3/1 40/3/1
f 46/3/1 42/3/1 45/3/1
f 47/3/1 43/3/1 37/3/1
f 48/2/1 44/2/1 43/2/1
f 48/3/1 43/3/1 47/3/1
f 48/2/1 45/2/1 44/2/1
f 48/2/1 46/2/1 45/2/1
f 49/2/1 46/2/1 48/2/1
f 50/2/1 46/2/1 49/2/1
f 51/3/1 42/3/1 46/3/1
f 51/2/1 46/2/1 50/2/1
f 52/3/1 42/3/1 51/3/1
f 53/3/1 50/3/1 49/3/1
f 53/2/1 48/2/1 47/2/1
f 53/2/1 49/2/1 48/2/1
f 54/2/1 52/2/1 51/2/1
f 54/3/1 50/3/1 53/3/1
f 54/2/1 51/2/1 50/2/1
f 55/2/1 53/2/1 47/2/1
f 55/2/1 54/2/1 53/2/1
f 56/2/1 52/2/1 54/2/1
f 56/2/1 54/2/1 55/2/1
f 57/2/1 55/2/1 47/2/1
f 58/2/1 55/2/1 57/2/1
f 59/3/1 56/3/1 55/3/1
f 59/2/1 55/2/1 58/2/1
f 60/2/1 52/2/1 56/2/1
f 60/3/1 56/3/1 59/3/1
f 61/2/1 52/2/1 60/2/1
f 62/2/1 52/2/1 61/2/1
f 63/2/1 59/2/1 58/2/1
f 63/3/1 58/3/1 57/3/1
f 63/2/1 60/2/1 59/2/1
f 63/2/1 61/2/1 60/2/1
f 64/3/1 62/3/1 61/3/1
f 64/2/1 61/2/1 63/2/1
f 65/3/1 63/3/1 57/3/1
f 65/3/1 64/3/1 63/3/1
f 66/3/1 62/3/1 64/3/1
f 66/3/1 64/3/1 65/3/1
f 67/2/1 66/2/1 65/2/1
f 68/2/1 66/2/1 67/2/1
f 69/3/1 65/3/1 57/3/1
f 70/2/1 67/2/1 65/2/1
f 70/3/1 65/3/1 69/3/1
f 71/2/1 66/2/1 68/2/1
f 71/3/1 62/3/1 66/3/1
f 72/3/1 62/3/1 71/3/1
f 73/2/1 70/2/1 69/2/1
f 74/2/1 67/2/1 70/2/1
f 74/2/1 70/2/1 73/2/1
f 75/2/1 71/2/1 68/2/1
f 75/2/1 72/2/1 71/2/1
f 76/2/1 72/2/1 75/2/1
f 77/3/1 68/3/1 67/3/1
f 77/2/1 67/2/1 74/2/1
f 78/2/1 75/2/1 68/2/1
f 78/3/1 68/3/1 77/3/1
f 79/3/1 74/3/1 73/3/1
f 79/2/1 77/2/1 74/2/1
f 79/2/1 78/2/1 77/2/1
f 80/3/1 76/3/1 75/3/1
f 80/2/1 78/2/1 79/2/1
f 80/2/1 75/2/1 78/2/1
f 81/3/1 79/3/1 73/3/1
f 81/3/1 80/3/1 79/3/1
f 82/3/1 76/3/1 80/3/1
f 82/3/1 80/3/1 81/3/1
f 83/2/1 82/2/1 81/2/1
f 84/2/1 82/2/1 83/2/1
f 85/3/1 81/3/1 73/3/1
f 86/2/1 83/2/1 81/2/1
f 86/3/1 81/3/1 85/3/1
f 87/3/1 84/3/1 83/3/1
f 87/2/1 83/2/1 86/2/1
f 88/2/1 82/2/1 84/2/1
f 88/3/1 84/3/1 87/3/1
f 89/3/1 76/3/1 82/3/1
f 89/2/1 82/2/1 88/2/1
f 90/3/1 76/3/1 89/3/1
f 95/3/1 92/3/1 91/3/1
f 96/3/1 94/3/1 93/3/1
f 97/3/1 95/3/1 91/3/1
f 98/3/1 95/3/1 97/3/1
f 99/3/1 94/3/1 96/3/1
f 100/3/1 94/3/1 99/3/1
f 101/2/1 98/2/1 97/2/1
f 102/2/1 98/2/1 101/2/1
f 103/2/1 100/2/1 99/2/1
f 104/2/1 100/2/1 103/2/1
f 105/3/1 102/3/1 101/3/1
f 106/3/1 102/3/1 105/3/1
f 107/3/1 104/3/1 103/3/1
f 108/3/1 104/3/1 107/3/1
f 109/2/1 106/2/1 105/2/1
f 110/2/1 106/2/1 109/2/1
f 111/2/1 108/2/1 107/2/1
f 112/2/1 108/2/1 111/2/1
f 113/3/1 110/3/1 109/3/1
f 114/3/1 110/3/1 113/3/1
f 115/3/1 112/3/1 111/3/1
f 116/3/1 112/3/1 115/3/1
f 117/2/1 114/2/1 113/2/1
f 118/2/1 114/2/1 117/2/1
f 119/2/1 116/2/1 115/2/1
f 120/2/1 116/2/1 119/2/1
f 121/3/1 118/3/1 117/3/1
f 122/3/1 118/3/1 121/3/1
f 123/3/1 120/3/1 119/3/1
f 124/3/1 120/3/1 123/3/1
f 125/2/1 122/2/1 121/2/1
f 126/2/1 122/2/1 125/2/1
f 127/2/1 124/2/1 123/2/1
f 128/2/1 124/2/1 127/2/1
f 129/3/1 126/3/1 125/3/1
f 130/3/1 126/3/1 129/3/1
f 131/3/1 128/3/1 127/3/1
f 132/3/1 128/3/1 131/3/1
f 133/2/1 130/2/1 129/2/1
f 134/2/1 130/2/1 133/2/1
f 135/2/1 132/2/1 131/2/1
f 136/2/1 132/2/1 135/2/1
f 137/3/1 134/3/1 133/3/1
f 138/3/1 134/3/1 137/3/1
f 139/3/1 136/3/1 135/3/1
f 140/3/1 136/3/1 139/3/1
f 141/2/1 138/2/1 137/2/1
f 142/2/1 138/2/1 141/2/1
f 143/2/1 140/2/1 139/2/1
f 144/2/1 140/2/1 143/2/1
f 145/3/2 146/3/2 149/3/2
f 147/3/2 148/3/2 150/3/2
f 145/3/2 149/3/2 151/3/2
f 151/3/2 149/3/2 152/3/2
f 150/3/2 148/3/2 153/3/2
f 153/3/2 148/3/2 154/3/2
f 151/2/2 152/2/2 155/2/2
f 155/2/2 152/2/2 156/2/2
f 153/2/2 154/2/2 157/2/2
f 157/2/2 154/2/2 158/2/2
f 155/3/2 156/3/2 159/3/2
f 159/3/2 156/3/2 160/3/2
f 157/3/2 158/3/2 161/3/2
f 161/3/2 158/3/2 162/3/2
f 159/2/2 160/2/2 163/2/2
f 163/2/2 160/2/2 164/2/2
f 161/2/2 162/2/2 165/2/2
f 165/2/2 162/2/2 166/2/2
f 163/3/2 164/3/2 167/3/2
f 167/3/2 164/3/2 168/3/2
f 165/3/2 166/3/2 169/3/2
f 169/3/2 166/3/2 170/3/2
f 167/2/2 168/2/2 171/2/2
f 171/2/2 168/2/2 172/2/2
f 169/2/2 170/2/2 173/2/2
f 173/2/2 170/2/2 174/2/2
f 171/3/2 172/3/2 175/3/2
f 175/3/2 172/3/2 176/3/2
f 173/3/2 174/3/2 177/3/2
f 177/3/2 174/3/2 178/3/2
f 175/2/2 176/2/2 179/2/2
f 179/2/2 176/2/2 180/2/2
f 177/2/2 178/2/2 181/2/2
f 181/2/2 178/2/2 182/2/2
f 179/3/2 180/3/2 183/3/2
f 183/3/2 180/3/2 184/3/2
f 181/3/2 182/3/2 185/3/2
f 185/3/2 182/3/2 186/3/2
f 183/2/2 184/2/2 187/2/2
f 187/2/2 184/2/2 188/2/2
f 185/2/2 186/2/2 189/2/2
f 189/2/2 186/2/2 190/2/2
f 187/3/2 188/3/2 191/3/2
f 191/3/2 188/3/2 192/3/2
f 189/3/2 190/3/2 193/3/2
f 193/3/2 190/3/2 194/3/2
f 191/2/2 192/2/2 195/2/2
f 195/2/2 192/2/2 196/2/2
f 193/2/2 194/2/2 197/2/2
f 197/2/2 194/2/2 198/2/2
f 200/2/2 201/2/2 205/2/2
f 201/3/2 202/3/2 205/3/2
f 202/2/2 203/2/2 206/2/2
f 205/3/2 202/3/2 206/3/2
f 200/2/2 205/2/2 207/2/2
f 205/2/2 206/2/2 207/2/2
f 206/2/2 203/2/2 208/2/2
f 207/2/2 206/2/2 208/2/2
f 199/3/2 200/3/2 209/3/2
f 200/2/2 207/2/2 210/2/2
f 209/3/2 200/3/2 210/3/2
f 207/3/2 208/3/2 211/3/2
f 210/2/2 207/2/2 211/2/2
f 208/2/2 203/2/2 212/2/2
f 211/3/2 208/3/2 212/3/2
f 203/3/2 204/3/2 213/3/2
f 212/2/2 203/2/2 213/2/2
f 213/3/2 204/3/2 214/3/2
f 210/2/2 211/2/2 215/2/2
f 211/2/2 212/2/2 215/2/2
f 213/2/2 214/2/2 215/2/2
f 212/2/2 213/2/2 215/2/2
f 209/2/2 210/2/2 215/2/2
f 215/2/2 214/2/2 216/2/2
f 209/2/2 215/2/2 217/2/2
f 215/3/2 216/3/2 218/3/2
f 217/2/2 215/2/2 218/2/2
f 218/3/2 216/3/2 219/3/2
f 219/3/2 216/3/2 220/3/2
f 216/2/2 214/2/2 221/2/2
f 220/3/2 216/3/2 221/3/2
f 221/2/2 214/2/2 222/2/2
f 217/3/2 218/3/2 223/3/2
f 218/3/2 219/3/2 223/3/2
f 219/2/2 220/2/2 224/2/2
f 223/3/2 219/3/2 224/3/2
f 221/3/2 222/3/2 225/3/2
f 224/2/2 220/2/2 225/2/2
f 220/3/2 221/3/2 225/3/2
f 225/3/2 222/3/2 226/3/2
f 217/3/2 223/3/2 227/3/2
f 223/2/2 224/2/2 228/2/2
f 227/3/2 223/3/2 228/3/2
f 224/2/2 225/2/2 228/2/2
f 225/2/2 226/2/2 228/2/2
f 228/2/2 226/2/2 229/2/2
f 229/2/2 226/2/2 230/2/2
f 226/3/2 222/3/2 231/3/2
f 230/2/2 226/2/2 231/2/2
f 231/3/2 222/3/2 232/3/2
f 229/3/2 230/3/2 233/3/2
f 227/2/2 228/2/2 233/2/2
f 228/2/2 229/2/2 233/2/2
f 231/2/2 232/2/2 234/2/2
f 233/3/2 230/3/2 234/3/2
f 230/2/2 231/2/2 234/2/2
f 227/2/2 233/2/2 235/2/2
f 233/2/2 234/2/2 235/2/2
f 234/2/2 232/2/2 236/2/2
f 235/2/2 234/2/2 236/2/2
f 227/2/2 235/2/2 237/2/2
f 237/2/2 235/2/2 238/2/2
f 235/3/2 236/3/2 239/3/2
f 238/2/2 235/2/2 239/2/2
f 236/2/2 232/2/2 240/2/2
f 239/3/2 236/3/2 240/3/2
f 240/2/2 232/2/2 241/2/2
f 241/2/2 232/2/2 242/2/2
f 238/2/2 239/2/2 243/2/2
f 237/3/2 238/3/2 243/3/2
f 239/2/2 240/2/2 243/2/2
f 240/2/2 241/2/2 243/2/2
f 241/3/2 242/3/2 244/3/2
f 243/2/2 241/2/2 244/2/2
f 237/3/2 243/3/2 245/3/2
f 243/3/2 244/3/2 245/3/2
f 244/3/2 242/3/2 246/3/2
f 245/3/2 244/3/2 246/3/2
f 245/2/2 246/2/2 247/2/2
f 247/2/2 246/2/2 248/2/2
f 237/3/2 245/3/2 249/3/2
f 245/2/2 247/2/2 250/2/2
f 249/3/2 245/3/2 250/3/2
f 248/2/2 246/2/2 251/2/2
f 246/3/2 242/3/2 251/3/2
f 251/3/2 242/3/2 252/3/2
f 249/2/2 250/2/2 253/2/2
f 250/2/2 247/2/2 254/2/2
f 253/2/2 250/2/2 254/2/2
f 248/2/2 251/2/2 255/2/2
f 251/2/2 252/2/2 255/2/2
f 255/2/2 252/2/2 256/2/2
f 247/3/2 248/3/2 257/3/2
f 254/2/2 247/2/2 257/2/2
f 248/2/2 255/2/2 258/2/2
f 257/3/2 248/3/2 258/3/2
f 253/3/2 254/3/2 259/3/2
f 254/2/2 257/2/2 259/2/2
f 257/2/2 258/2/2 259/2/2
f 255/3/2 256/3/2 260/3/2
f 259/2/2 258/2/2 260/2/2
f 258/2/2 255/2/2 260/2/2
f 253/3/2 259/3/2 261/3/2
f 259/3/2 260/3/2 261/3/2
f 260/3/2 256/3/2 262/3/2
f 261/3/2 260/3/2 262/3/2
f 261/2/2 262/2/2 263/2/2
f 263/2/2 262/2/2 264/2/2
f 253/3/2 261/3/2 265/3/2
f 261/2/2 263/2/2 266/2/2
f 265/3/2 261/3/2 266/3/2
f 263/3/2 264/3/2 267/3/2
f 266/2/2 263/2/2 267/2/2
f 264/2/2 262/2/2 268/2/2
f 267/3/2 264/3/2 268/3/2
f 262/3/2 256/3/2 269/3/2
f 268/2/2 262/2/2 269/2/2
f 269/3/2 256/3/2 270/3/2
f 271/1/2 272/1/2 273/1/2
f 273/1/2 272/1/2 274/1/2
f 275/1/2 276/1/2 277/1/2
f 277/1/2 276/1/2 278/1/2
f 277/3/2 278/3/2 279/3/2
f 279/3/2 278/3/2 280/3/2
f 281/3/2 282/3/2 283/3/2
f 283/3/2 282/3/2 284/3/2
f 285/3/2 286/3/2 287/3/2
f 287/3/2 286/3/2 288/3/2
f 293/3/3 290/3/3 289/3/3
f 294/3/3 290/3/3 293/3/3
f 295/3/3 292/3/3 291/3/3
f 296/3/3 292/3/3 295/3/3
f 302/1/3 298/1/3 297/1/3
f 303/1/3 298/1/3 302/1/3
f 304/1/3 300/1/3 299/1/3
f 305/3/3 301/3/3 300/3/3
f 305/1/3 300/1/3 304/1/3
f 306/3/3 301/3/3 305/3/3
f 320/3/3 308/3/3 307/3/3
f 321/2/3 309/2/3 308/2/3
f 321/3/3 308/3/3 320/3/3
f 322/2/3 311/2/3 310/2/3
f 322/3/3 312/3/3 311/3/3
f 323/3/3 312/3/3 322/3/3
f 324/2/3 313/2/3 312/2/3
f 324/3/3 312/3/3 323/3/3
f 325/2/3 313/2/3 324/2/3
f 326/2/3 317/2/3 316/2/3
f 326/3/3 318/3/3 317/3/3
f 327/2/3 319/2/3 318/2/3
f 327/3/3 318/3/3 326/3/3
f 328/2/3 319/2/3 327/2/3
f 329/2/3 319/2/3 328/2/3
f 330/3/3 320/3/3 307/3/3
f 331/2/3 321/2/3 320/2/3
f 331/3/3 320/3/3 330/3/3
f 332/2/3 309/2/3 321/2/3
f 332/2/3 321/2/3 331/2/3
f 333/3/3 310/3/3 309/3/3
f 333/2/3 309/2/3 332/2/3
f 334/2/3 323/2/3 322/2/3
f 334/3/3 310/3/3 333/3/3
f 334/2/3 322/2/3 310/2/3
f 335/2/3 323/2/3 334/2/3
f 336/3/3 314/3/3 313/3/3
f 336/2/3 313/2/3 325/2/3
f 337/2/3 315/2/3 314/2/3
f 337/3/3 314/3/3 336/3/3
f 338/2/3 326/2/3 316/2/3
f 338/3/3 316/3/3 315/3/3
f 338/2/3 327/2/3 326/2/3
f 338/2/3 328/2/3 327/2/3
f 339/3/3 329/3/3 328/3/3
f 339/2/3 328/2/3 338/2/3
f 340/2/3 332/2/3 331/2/3
f 340/2/3 331/2/3 330/2/3
f 341/2/3 332/2/3 340/2/3
f 342/3/3 333/3/3 332/3/3
f 342/2/3 332/2/3 341/2/3
f 342/3/3 335/3/3 334/3/3
f 342/3/3 334/3/3 333/3/3
f 343/3/3 335/3/3 342/3/3
f 344/3/3 335/3/3 343/3/3
f 345/2/3 323/2/3 335/2/3
f 345/3/3 335/3/3 344/3/3
f 346/2/3 336/2/3 325/2/3
f 346/2/3 337/2/3 336/2/3
f 347/2/3 315/2/3 337/2/3
f 347/2/3 337/2/3 346/2/3
f 348/3/3 339/3/3 338/3/3
f 348/3/3 338/3/3 315/3/3
f 349/3/3 329/3/3 339/3/3
f 349/3/3 339/3/3 348/3/3
f 350/3/3 341/3/3 340/3/3
f 350/2/3 342/2/3 341/2/3
f 350/2/3 343/2/3 342/2/3
f 351/2/3 343/2/3 350/2/3
f 352/2/3 345/2/3 344/2/3
f 353/2/3 323/2/3 345/2/3
f 353/2/3 345/2/3 352/2/3
f 353/3/3 325/3/3 324/3/3
f 353/3/3 324/3/3 323/3/3
f 354/3/3 325/3/3 353/3/3
f 355/2/3 346/2/3 325/2/3
f 355/3/3 325/3/3 354/3/3
f 356/2/3 349/2/3 348/2/3
f 357/2/3 349/2/3 356/2/3
f 358/3/3 329/3/3 349/3/3
f 358/2/3 349/2/3 357/2/3
f 359/3/3 329/3/3 358/3/3
f 360/3/3 351/3/3 350/3/3
f 360/3/3 350/3/3 340/3/3
f 361/2/3 343/2/3 351/2/3
f 361/3/3 351/3/3 360/3/3
f 362/3/3 344/3/3 343/3/3
f 362/2/3 343/2/3 361/2/3
f 363/2/3 352/2/3 344/2/3
f 363/3/3 344/3/3 362/3/3
f 364/3/3 354/3/3 353/3/3
f 364/2/3 352/2/3 363/2/3
f 364/3/3 353/3/3 352/3/3
f 365/2/3 355/2/3 354/2/3
f 365/3/3 354/3/3 364/3/3
f 366/3/3 347/3/3 346/3/3
f 366/2/3 355/2/3 365/2/3
f 366/2/3 346/2/3 355/2/3
f 367/2/3 315/2/3 347/2/3
f 367/3/3 347/3/3 366/3/3
f 368/3/3 348/3/3 315/3/3
f 368/2/3 315/2/3 367/2/3
f 369/2/3 356/2/3 348/2/3
f 369/3/3 348/3/3 368/3/3
f 370/3/3 357/3/3 356/3/3
f 370/2/3 356/2/3 369/2/3
f 371/2/3 359/2/3 358/2/3
f 371/3/3 357/3/3 370/3/3
f 371/2/3 358/2/3 357/2/3
f 372/2/3 359/2/3 371/2/3
f 381/3/3 374/3/3 373/3/3
f 382/2/3 375/2/3 374/2/3
f 382/3/3 374/3/3 381/3/3
f 383/2/3 375/2/3 382/2/3
f 384/3/3 376/3/3 375/3/3
f 384/2/3 375/2/3 383/2/3
f 385/3/3 376/3/3 384/3/3
f 386/2/3 377/2/3 376/2/3
f 386/3/3 376/3/3 385/3/3
f 387/3/3 378/3/3 377/3/3
f 387/2/3 377/2/3 386/2/3
f 388/3/3 378/3/3 387/3/3
f 389/2/3 379/2/3 378/2/3
f 389/3/3 378/3/3 388/3/3
f 390/3/3 380/3/3 379/3/3
f 390/2/3 379/2/3 389/2/3
f 391/3/3 380/3/3 390/3/3
f 392/3/3 380/3/3 391/3/3
f 393/3/3 380/3/3 392/3/3
f 394/3/3 380/3/3 393/3/3
f 409/3/3 396/3/3 395/3/3
f 410/2/3 397/2/3 396/2/3
f 410/3/3 396/3/3 409/3/3
f 410/2/3 398/2/3 397/2/3
f 411/3/3 399/3/3 398/3/3
f 411/2/3 398/2/3 410/2/3
f 411/3/3 400/3/3 399/3/3
f 412/2/3 401/2/3 400/2/3
f 412/3/3 400/3/3 411/3/3
f 413/3/3 402/3/3 401/3/3
f 413/2/3 401/2/3 412/2/3
f 413/3/3 403/3/3 402/3/3
f 414/2/3 404/2/3 403/2/3
f 414/3/3 403/3/3 413/3/3
f 415/3/3 408/3/3 407/3/3
f 415/2/3 404/2/3 414/2/3
f 415/3/3 407/3/3 406/3/3
f 415/3/3 406/3/3 405/3/3
f 415/3/3 405/3/3 404/3/3
f 416/3/3 408/3/3 415/3/3
f 417/3/4 418/3/4 425/3/4
f 418/2/4 419/2/4 426/2/4
f 425/3/4 418/3/4 426/3/4
f 426/2/4 419/2/4 427/2/4
f 419/3/4 420/3/4 428/3/4
f 427/2/4 419/2/4 428/2/4
f 428/3/4 420/3/4 429/3/4
f 420/2/4 421/2/4 430/2/4
f 429/3/4 420/3/4 430/3/4
f 421/3/4 422/3/4 431/3/4
f 430/2/4 421/2/4 431/2/4
f 431/3/4 422/3/4 432/3/4
f 422/2/4 423/2/4 433/2/4
f 432/3/4 422/3/4 433/3/4
f 423/3/4 424/3/4 434/3/4
f 433/2/4 423/2/4 434/2/4
f 434/3/4 424/3/4 435/3/4
f 435/3/4 424/3/4 436/3/4
f 436/3/4 424/3/4 437/3/4
f 437/3/4 424/3/4 438/3/4
f 439/3/4 440/3/4 453/3/4
f 440/2/4 441/2/4 454/2/4
f 453/3/4 440/3/4 454/3/4
f 441/2/4 442/2/4 454/2/4
f 442/3/4 443/3/4 455/3/4
f 454/2/4 442/2/4 455/2/4
f 443/3/4 444/3/4 455/3/4
f 444/2/4 445/2/4 456/2/4
f 455/3/4 444/3/4 456/3/4
f 445/3/4 446/3/4 457/3/4
f 456/2/4 445/2/4 457/2/4
f 446/3/4 447/3/4 457/3/4
f 447/2/4 448/2/4 458/2/4
f 457/3/4 447/3/4 458/3/4
f 451/3/4 452/3/4 459/3/4
f 458/2/4 448/2/4 459/2/4
f 450/3/4 451/3/4 459/3/4
f 449/3/4 450/3/4 459/3/4
f 448/3/4 449/3/4 459/3/4
f 459/3/4 452/3/4 460/3/4
f 461/3/4 462/3/4 474/3/4
f 462/2/4 463/2/4 475/2/4
f 474/3/4 462/3/4 475/3/4
f 464/2/4 465/2/4 476/2/4
f 465/3/4 466/3/4 476/3/4
f 476/3/4 466/3/4 477/3/4
f 466/2/4 467/2/4 478/2/4
f 477/3/4 466/3/4 478/3/4
f 478/2/4 467/2/4 479/2/4
f 470/2/4 471/2/4 480/2/4
f 471/3/4 472/3/4 480/3/4
f 472/2/4 473/2/4 481/2/4
f 480/3/4 472/3/4 481/3/4
f 481/2/4 473/2/4 482/2/4
f 482/2/4 473/2/4 483/2/4
f 461/3/4 474/3/4 484/3/4
f 474/2/4 475/2/4 485/2/4
f 484/3/4 474/3/4 485/3/4
f 475/2/4 463/2/4 486/2/4
f 485/2/4 475/2/4 486/2/4
f 463/3/4 464/3/4 487/3/4
f 486/2/4 463/2/4 487/2/4
f 476/2/4 477/2/4 488/2/4
f 487/3/4 464/3/4 488/3/4
f 464/2/4 476/2/4 488/2/4
f 488/2/4 477/2/4 489/2/4
f 467/3/4 468/3/4 490/3/4
f 479/2/4 467/2/4 490/2/4
f 468/2/4 469/2/4 491/2/4
f 490/3/4 468/3/4 491/3/4
f 470/2/4 480/2/4 492/2/4
f 469/3/4 470/3/4 492/3/4
f 480/2/4 481/2/4 492/2/4
f 481/2/4 482/2/4 492/2/4
f 482/3/4 483/3/4 493/3/4
f 492/2/4 482/2/4 493/2/4
f 485/2/4 486/2/4 494/2/4
f 484/2/4 485/2/4 494/2/4
f 494/2/4 486/2/4 495/2/4
f 486/3/4 487/3/4 496/3/4
f 495/2/4 486/2/4 496/2/4
f 488/3/4 489/3/4 496/3/4
f 487/3/4 488/3/4 496/3/4
f 496/3/4 489/3/4 497/3/4
f 497/3/4 489/3/4 498/3/4
f 489/2/4 477/2/4 499/2/4
f 498/3/4 489/3/4 499/3/4
f 479/2/4 490/2/4 500/2/4
f 490/2/4 491/2/4 500/2/4
f 491/2/4 469/2/4 501/2/4
f 500/2/4 491/2/4 501/2/4
f 492/3/4 493/3/4 502/3/4
f 469/3/4 492/3/4 502/3/4
f 493/3/4 483/3/4 503/3/4
f 502/3/4 493/3/4 503/3/4
f 494/3/4 495/3/4 504/3/4
f 495/2/4 496/2/4 504/2/4
f 496/2/4 497/2/4 504/2/4
f 504/2/4 497/2/4 505/2/4
f 498/2/4 499/2/4 506/2/4
f 499/2/4 477/2/4 507/2/4
f 506/2/4 499/2/4 507/2/4
f 478/3/4 479/3/4 507/3/4
f 477/3/4 478/3/4 507/3/4
f 507/3/4 479/3/4 508/3/4
f 479/2/4 500/2/4 509/2/4
f 508/3/4 479/3/4 509/3/4
f 502/2/4 503/2/4 510/2/4
f 510/2/4 503/2/4 511/2/4
f 503/3/4 483/3/4 512/3/4
f 511/2/4 503/2/4 512/2/4
f 512/3/4 483/3/4 513/3/4
f 504/3/4 505/3/4 514/3/4
f 494/3/4 504/3/4 514/3/4
f 505/2/4 497/2/4 515/2/4
f 514/3/4 505/3/4 515/3/4
f 497/3/4 498/3/4 516/3/4
f 515/2/4 497/2/4 516/2/4
f 498/2/4 506/2/4 517/2/4
f 516/3/4 498/3/4 517/3/4
f 507/3/4 508/3/4 518/3/4
f 517/2/4 506/2/4 518/2/4
f 506/3/4 507/3/4 518/3/4
f 508/2/4 509/2/4 519/2/4
f 518/3/4 508/3/4 519/3/4
f 500/3/4 501/3/4 520/3/4
f 519/2/4 509/2/4 520/2/4
f 509/2/4 500/2/4 520/2/4
f 501/2/4 469/2/4 521/2/4
f 520/3/4 501/3/4 521/3/4
f 469/3/4 502/3/4 522/3/4
f 521/2/4 469/2/4 522/2/4
f 502/2/4 510/2/4 523/2/4
f 522/3/4 502/3/4 523/3/4
f 510/3/4 511/3/4 524/3/4
f 523/2/4 510/2/4 524/2/4
f 512/2/4 513/2/4 525/2/4
f 524/3/4 511/3/4 525/3/4
f 511/2/4 512/2/4 525/2/4
f 525/2/4 513/2/4 526/2/4
f 527/1/4 528/1/4 532/1/4
f 532/1/4 528/1/4 533/1/4
f 529/1/4 530/1/4 534/1/4
f 530/3/4 531/3/4 535/3/4
f 534/1/4 530/1/4 535/1/4
f 535/3/4 531/3/4 536/3/4
f 537/3/4 538/3/4 541/3/4
f 541/3/4 538/3/4 542/3/4
f 539/3/4 540/3/4 543/3/4
f 543/3/4 540/3/4 544/3/4
f 547/3/5 546/3/5 545/3/5
f 548/3/5 546/3/5 547/3/5
f 551/1/5 550/1/5 549/1/5
f 552/1/5 550/1/5 551/1/5
f 553/1/5 550/1/5 552/1/5
f 554/1/5 550/1/5 553/1/5
f 555/1/5 551/1/5 549/1/5
f 556/1/5 551/1/5 555/1/5
f 557/1/5 550/1/5 554/1/5
f 558/1/5 550/1/5 557/1/5
f 559/1/5 555/1/5 549/1/5
f 560/1/5 550/1/5 558/1/5
f 561/1/5 559/1/5 549/1/5
f 562/1/5 550/1/5 560/1/5
f 563/1/5 561/1/5 549/1/5
f 564/1/5 550/1/5 562/1/5
f 565/1/5 563/1/5 549/1/5
f 566/1/5 550/1/5 564/1/5
f 567/1/5 565/1/5 549/1/5
f 570/1/5 550/1/5 566/1/5
f 571/1/5 568/1/5 567/1/5
f 574/1/5 570/1/5 569/1/5
f 575/1/5 573/1/5 572/1/5
f 575/1/5 574/1/5 573/1/5
f 575/1/5 567/1/5 549/1/5
f 575/1/5 571/1/5 567/1/5
f 575/1/5 572/1/5 571/1/5
f 576/1/5 570/1/5 574/1/5
f 576/1/5 574/1/5 575/1/5
f 576/1/5 550/1/5 570/1/5
f 579/3/5 578/3/5 577/3/5
f 580/3/5 578/3/5 579/3/5
f 581/3/5 579/3/5 577/3/5
f 582/3/5 578/3/5 580/3/5
f 583/3/5 581/3/5 577/3/5
f 583/3/5 582/3/5 581/3/5
f 584/3/5 578/3/5 582/3/5
f 584/3/5 582/3/5 583/3/5
f 585/3/6 586/3/6 587/3/6
f 587/3/6 586/3/6 588/3/6
f 585/3/6 587/3/6 589/3/6
f 588/3/6 586/3/6 590/3/6
f 585/3/6 589/3/6 591/3/6
f 589/3/6 590/3/6 591/3/6
f 590/3/6 586/3/6 592/3/6
f 591/3/6 590/3/6 592/3/6
f 593/1/6 594/1/6 595/1/6
f 595/1/6 594/1/6 596/1/6
f 596/1/6 594/1/6 597/1/6
f 597/1/6 594/1/6 598/1/6
f 593/1/6 595/1/6 599/1/6
f 599/1/6 595/1/6 600/1/6
f 598/1/6 594/1/6 601/1/6
f 601/1/6 594/1/6 602/1/6
f 593/1/6 599/1/6 603/1/6
f 602/1/6 594/1/6 604/1/6
f 593/1/6 603/1/6 605/1/6
f 604/1/6 594/1/6 606/1/6
f 593/1/6 605/1/6 607/1/6
f 606/1/6 594/1/6 608/1/6
f 593/1/6 607/1/6 609/1/6
f 608/1/6 594/1/6 610/1/6
f 593/1/6 609/1/6 611/1/6
f 610/1/6 594/1/6 614/1/6
f 611/1/6 612/1/6 615/1/6
f 613/1/6 614/1/6 618/1/6
f 616/1/6 617/1/6 619/1/6
f 617/1/6 618/1/6 619/1/6
f 593/1/6 611/1/6 619/1/6
f 611/1/6 615/1/6 619/1/6
f 615/1/6 616/1/6 619/1/6
f 618/1/6 614/1/6 620/1/6
f 619/1/6 618/1/6 620/1/6
f 614/1/6 594/1/6 620/1/6
f 621/3/6 622/3/6 623/3/6
f 623/3/6 622/3/6 624/3/6
