# MagicaVoxel @ Ephtracy

# material
mtllib pillar.mtl
usemtl palette

# normals
vn -1 0 0
vn 1 0 0
vn 0 0 1
vn 0 0 -1
vn 0 -1 0
vn 0 1 0

# texcoords
vt 0.306641 0.5
vt 0.880859 0.5
vt 0.912109 0.5
vt 0.970703 0.5

# verts
v -16 0 16
v -16 0 -16
v -16 1 16
v -16 1 -16
v -5 1 5
v -5 1 -5
v -5 3 5
v -5 3 -5
v -4 3 4
v -4 3 -4
v -4 4 4
v -4 4 -4
v -3 4 3
v -3 4 -3
v -3 32 3
v -3 32 -3
v 3 4 3
v 3 4 -3
v 3 32 3
v 3 32 -3
v 4 3 4
v 4 3 -4
v 4 4 4
v 4 4 -4
v 5 1 5
v 5 1 -5
v 5 3 5
v 5 3 -5
v 16 0 16
v 16 0 -16
v 16 1 16
v 16 1 -16
v -16 0 16
v -16 1 16
v 16 0 16
v 16 1 16
v -5 1 5
v -5 3 5
v 5 1 5
v 5 3 5
v -4 3 4
v -4 4 4
v 4 3 4
v 4 4 4
v -3 4 3
v -3 32 3
v 3 4 3
v 3 32 3
v -3 4 -3
v -3 32 -3
v 3 4 -3
v 3 32 -3
v -4 3 -4
v -4 4 -4
v 4 3 -4
v 4 4 -4
v -5 1 -5
v -5 3 -5
v 5 1 -5
v 5 3 -5
v -16 0 -16
v -16 1 -16
v 16 0 -16
v 16 1 -16
v -16 0 16
v 16 0 16
v -5 0 5
v 5 0 5
v -5 0 -5
v 5 0 -5
v -16 0 -16
v 16 0 -16
v -16 1 16
v 16 1 16
v -5 1 5
v 5 1 5
v -5 1 -5
v 5 1 -5
v -16 1 -16
v 16 1 -16
v -5 3 5
v 5 3 5
v -4 3 4
v 4 3 4
v -4 3 -4
v 4 3 -4
v -5 3 -5
v 5 3 -5
v -4 4 4
v 4 4 4
v -3 4 3
v 3 4 3
v -3 4 -3
v 3 4 -3
v -4 4 -4
v 4 4 -4
v -3 32 3
v 3 32 3
v -3 32 -3
v 3 32 -3

# faces
f 3/4/1 2/4/1 1/4/1
f 4/4/1 2/4/1 3/4/1
f 7/3/1 6/3/1 5/3/1
f 8/3/1 6/3/1 7/3/1
f 11/2/1 10/2/1 9/2/1
f 12/2/1 10/2/1 11/2/1
f 15/3/1 14/3/1 13/3/1
f 16/3/1 14/3/1 15/3/1
f 17/3/2 18/3/2 19/3/2
f 19/3/2 18/3/2 20/3/2
f 21/2/2 22/2/2 23/2/2
f 23/2/2 22/2/2 24/2/2
f 25/3/2 26/3/2 27/3/2
f 27/3/2 26/3/2 28/3/2
f 29/4/2 30/4/2 31/4/2
f 31/4/2 30/4/2 32/4/2
f 35/4/3 34/4/3 33/4/3
f 36/4/3 34/4/3 35/4/3
f 39/3/3 38/3/3 37/3/3
f 40/3/3 38/3/3 39/3/3
f 43/2/3 42/2/3 41/2/3
f 44/2/3 42/2/3 43/2/3
f 47/3/3 46/3/3 45/3/3
f 48/3/3 46/3/3 47/3/3
f 49/3/4 50/3/4 51/3/4
f 51/3/4 50/3/4 52/3/4
f 53/2/4 54/2/4 55/2/4
f 55/2/4 54/2/4 56/2/4
f 57/3/4 58/3/4 59/3/4
f 59/3/4 58/3/4 60/3/4
f 61/4/4 62/4/4 63/4/4
f 63/4/4 62/4/4 64/4/4
f 67/4/5 66/4/5 65/4/5
f 68/4/5 66/4/5 67/4/5
f 69/4/5 67/4/5 65/4/5
f 69/2/5 68/2/5 67/2/5
f 70/4/5 66/4/5 68/4/5
f 70/2/5 68/2/5 69/2/5
f 71/4/5 69/4/5 65/4/5
f 71/4/5 70/4/5 69/4/5
f 72/4/5 66/4/5 70/4/5
f 72/4/5 70/4/5 71/4/5
f 73/4/6 74/4/6 75/4/6
f 75/4/6 74/4/6 76/4/6
f 73/4/6 75/4/6 77/4/6
f 76/4/6 74/4/6 78/4/6
f 73/4/6 77/4/6 79/4/6
f 77/4/6 78/4/6 79/4/6
f 78/4/6 74/4/6 80/4/6
f 79/4/6 78/4/6 80/4/6
f 81/3/6 82/3/6 83/3/6
f 83/3/6 82/3/6 84/3/6
f 81/3/6 83/3/6 85/3/6
f 84/3/6 82/3/6 86/3/6
f 81/3/6 85/3/6 87/3/6
f 85/3/6 86/3/6 87/3/6
f 86/3/6 82/3/6 88/3/6
f 87/3/6 86/3/6 88/3/6
f 89/2/6 90/2/6 91/2/6
f 91/2/6 90/2/6 92/2/6
f 89/2/6 91/2/6 93/2/6
f 92/2/6 90/2/6 94/2/6
f 89/2/6 93/2/6 95/2/6
f 93/2/6 94/2/6 95/2/6
f 94/2/6 90/2/6 96/2/6
f 95/2/6 94/2/6 96/2/6
f 97/3/6 98/3/6 99/3/6
f 99/3/6 98/3/6 100/3/6
