# Blender v2.78 (sub 0) OBJ File: 'pillar.blend'
# www.blender.org
mtllib pillar3.mtl
o Plane
v -0.216879 0.000000 -0.216879
v -0.216879 0.000000 0.216879
v 0.216879 0.000000 0.216879
v 0.216879 0.000000 -0.216879
v -0.125914 0.059428 -0.125914
v -0.125914 0.059428 0.125914
v 0.125914 0.059428 0.125914
v 0.125914 0.059428 -0.125914
v -0.216879 0.059428 -0.216879
v -0.216879 0.059428 0.216879
v 0.216879 0.059428 0.216879
v 0.216879 0.059428 -0.216879
v -0.187686 0.944993 -0.187686
v -0.187686 0.944993 0.187686
v 0.187686 0.944993 0.187686
v 0.187686 0.944993 -0.187686
v -0.125914 0.933015 -0.125914
v -0.125914 0.933015 0.125914
v 0.125914 0.933015 0.125914
v 0.125914 0.933015 -0.125914
v -0.187686 1.001098 -0.187686
v -0.187686 1.001098 0.187686
v 0.187686 1.001098 0.187686
v 0.187686 1.001098 -0.187686
vt 0.3594 0.7812
vt 0.0000 0.7812
vt 0.0000 0.7344
vt 0.3594 0.7344
vt 0.0000 0.7344
vt 0.2188 0.7344
vt 0.2188 0.0000
vt 0.0000 0.0000
vt 0.3594 0.8438
vt 0.0000 0.8438
vt 0.0000 0.7812
vt 0.3594 0.7812
vt 0.0000 0.7812
vt 0.0000 0.7344
vt 0.3594 0.8438
vt 0.3594 0.7812
vt 0.7188 0.2969
vt 0.7188 0.0781
vt 0.7969 0.0000
vt 0.7969 0.3594
vt 0.5000 0.2969
vt 0.4219 0.3594
vt 0.5000 0.0781
vt 0.4219 0.0000
vt 0.3125 0.8906
vt 0.0000 0.8906
vt 0.0000 0.8438
vt 0.3125 0.8438
vt 0.2188 0.0000
vt 0.4219 0.0000
vt 0.4219 0.7344
vt 0.2188 0.7344
vt 0.2188 0.7344
vt 0.2188 0.0000
vt 0.4219 0.0000
vt 0.4219 0.7344
vt 0.7344 1.0000
vt 0.7344 0.6875
vt 0.6875 0.7344
vt 0.6875 0.9531
vt 0.4219 1.0000
vt 0.4844 0.9531
vt 0.4219 0.6875
vt 0.4844 0.7344
vt 0.7344 0.6875
vt 0.4219 0.6875
vt 0.4219 0.3594
vt 0.7344 0.3594
vt 0.0000 0.9375
vt 0.3125 0.9375
vt 0.3125 0.8906
vt 0.0000 0.8906
vt 0.3125 0.8906
vt 0.3125 0.8438
vt 0.0000 0.9375
vt 0.0000 0.8906
vn 0.0000 0.0000 1.0000
vn 0.0000 0.0000 -1.0000
vn 1.0000 0.0000 0.0000
vn -1.0000 0.0000 0.0000
vn 0.0000 1.0000 0.0000
vn -0.1904 -0.9817 0.0000
vn 0.0000 -0.9817 0.1904
vn 0.1904 -0.9817 0.0000
vn 0.0000 -0.9817 -0.1904
usemtl Material.001
s off
f 2/1/1 3/2/1 11/3/1 10/4/1
f 8/5/2 5/6/2 17/7/2 20/8/2
f 3/9/3 4/10/3 12/11/3 11/12/3
f 1/13/4 2/1/4 10/4/4 9/14/4
f 4/10/2 1/15/2 9/16/2 12/11/2
f 6/17/5 5/18/5 9/19/5 10/20/5
f 7/21/5 6/17/5 10/20/5 11/22/5
f 8/23/5 7/21/5 11/22/5 12/24/5
f 5/18/5 8/23/5 12/24/5 9/19/5
f 15/25/3 16/26/3 24/27/3 23/28/3
f 6/29/1 7/30/1 19/31/1 18/32/1
f 7/33/3 8/5/3 20/8/3 19/34/3
f 5/35/4 6/29/4 18/32/4 17/36/4
f 14/37/6 13/38/6 17/39/6 18/40/6
f 15/41/7 14/37/7 18/40/7 19/42/7
f 16/43/8 15/41/8 19/42/8 20/44/8
f 13/38/9 16/43/9 20/44/9 17/39/9
f 22/45/5 23/46/5 24/47/5 21/48/5
f 13/49/4 14/50/4 22/51/4 21/52/4
f 16/26/2 13/53/2 21/54/2 24/27/2
f 14/50/1 15/55/1 23/56/1 22/51/1
