# Blender v2.78 (sub 0) OBJ File: 'pillar.blend'
# www.blender.org
mtllib pillar3.mtl
o Plane
v -0.216879 0.000000 -0.216879
v -0.216879 0.000000 0.216879
v 0.216879 0.000000 0.216879
v 0.216879 0.000000 -0.216879
v -0.125914 0.059428 -0.125914
v -0.125914 0.059428 0.125914
v 0.125914 0.059428 0.125914
v 0.125914 0.059428 -0.125914
v -0.216879 0.059428 -0.216879
v -0.216879 0.059428 0.216879
v 0.216879 0.059428 0.216879
v 0.216879 0.059428 -0.216879
v -0.187686 0.944993 -0.187686
v -0.187686 0.944993 0.187686
v 0.187686 0.944993 0.187686
v 0.187686 0.944993 -0.187686
v -0.125914 0.933015 -0.125914
v -0.125914 0.933015 0.125914
v 0.125914 0.933015 0.125914
v 0.125914 0.933015 -0.125914
v -0.187686 1.001098 -0.187686
v -0.187686 1.001098 0.187686
v 0.187686 1.001098 0.187686
v 0.187686 1.001098 -0.187686
vn 0.0000 0.0000 1.0000
vn 0.0000 0.0000 -1.0000
vn 1.0000 0.0000 0.0000
vn -1.0000 0.0000 0.0000
vn 0.0000 1.0000 0.0000
vn -0.1904 -0.9817 0.0000
vn 0.0000 -0.9817 0.1904
vn 0.1904 -0.9817 0.0000
vn 0.0000 -0.9817 -0.1904
usemtl None
s off
f 2//1 3//1 11//1 10//1
f 8//2 5//2 17//2 20//2
f 3//3 4//3 12//3 11//3
f 1//4 2//4 10//4 9//4
f 4//2 1//2 9//2 12//2
f 6//5 5//5 9//5 10//5
f 7//5 6//5 10//5 11//5
f 8//5 7//5 11//5 12//5
f 5//5 8//5 12//5 9//5
f 15//3 16//3 24//3 23//3
f 6//1 7//1 19//1 18//1
f 7//3 8//3 20//3 19//3
f 5//4 6//4 18//4 17//4
f 14//6 13//6 17//6 18//6
f 15//7 14//7 18//7 19//7
f 16//8 15//8 19//8 20//8
f 13//9 16//9 20//9 17//9
f 22//5 23//5 24//5 21//5
f 13//4 14//4 22//4 21//4
f 16//2 13//2 21//2 24//2
f 14//1 15//1 23//1 22//1
