# Blender v2.78 (sub 0) OBJ File: 'torch.blend'
# www.blender.org
mtllib torch.mtl
o Cone
v 0.000000 0.288521 0.045616
v 0.000000 0.008581 0.000007
v 0.039511 0.288518 -0.022819
v -0.039511 0.288518 -0.022819
v -0.000000 0.335966 0.030079
v 0.026058 0.335963 -0.015055
v -0.026058 0.335963 -0.015055
vt 0.1899 0.8601
vt 0.2266 0.7868
vt 0.2449 0.8601
vt 0.1264 0.8601
vt 0.1581 0.7868
vt 0.1899 0.8601
vt 0.1814 0.9458
vt 0.1630 0.8725
vt 0.1264 0.9458
vt 0.2431 0.4326
vt 0.1313 0.4326
vt 0.1313 0.4578
vt 0.2431 0.4578
vt 0.3550 0.2835
vt 0.2432 0.3481
vt 0.3550 0.4126
vt 0.1313 0.2581
vt 0.2604 0.2581
vt 0.2604 0.2834
vt 0.1313 0.2834
vt 0.2605 0.2581
vt 0.3723 0.2581
vt 0.3723 0.2834
vt 0.2605 0.2834
vn 0.8632 -0.0812 0.4984
vn -0.0000 -0.0813 -0.9967
vn -0.8632 -0.0812 0.4984
vn -0.8546 0.1616 0.4934
vn -0.0000 1.0000 -0.0001
vn -0.0000 0.1615 -0.9869
vn 0.8546 0.1616 0.4934
usemtl Material.001
s off
f 1/1/1 2/2/1 3/3/1
f 3/4/2 2/5/2 4/6/2
f 4/7/3 2/8/3 1/9/3
f 4/10/4 1/11/4 5/12/4 7/13/4
f 5/14/5 6/15/5 7/16/5
f 3/17/6 4/18/6 7/19/6 6/20/6
f 1/21/7 3/22/7 6/23/7 5/24/7
